<?xml version="1.0" standalone="no"?>
<!DOCTYPE svg PUBLIC "-//W3C//DTD SVG 20010904//EN"
 "http://www.w3.org/TR/2001/REC-SVG-20010904/DTD/svg10.dtd">
<svg version="1.0" xmlns="http://www.w3.org/2000/svg"
 width="177.000000pt" height="177.000000pt" viewBox="0 0 177.000000 177.000000"
 preserveAspectRatio="xMidYMid meet">
<metadata>
Created by potrace 1.11, written by Peter Selinger 2001-2013
</metadata>
<g transform="translate(0.000000,177.000000) scale(0.100000,-0.100000)"
fill="#000000" stroke="none">
<path d="M220 1761 c-118 -38 -187 -139 -177 -256 3 -33 12 -72 20 -87 19 -38
72 -98 86 -98 6 0 11 -5 11 -12 0 -6 3 -8 6 -5 4 3 16 1 28 -5 11 -7 24 -12
28 -13 3 0 9 -3 12 -6 3 -3 27 -3 53 0 27 4 57 6 68 6 11 0 28 8 38 18 10 10
25 16 33 13 7 -3 13 -2 12 2 -1 4 12 23 30 42 35 38 62 112 62 171 0 44 -32
124 -63 157 -58 62 -175 97 -247 73z"/>
<path d="M820 1761 c-140 -46 -215 -191 -164 -318 7 -18 11 -33 8 -33 -3 0 0
-6 6 -12 44 -54 71 -77 107 -93 23 -10 40 -22 38 -25 -2 -4 7 -5 20 -2 17 3
25 0 25 -9 0 -10 3 -10 8 -3 8 12 74 25 66 13 -2 -4 0 -11 6 -14 6 -4 9 -1 8
7 -2 7 5 12 14 12 10 -1 16 1 14 5 -2 3 7 11 20 18 18 8 23 8 18 0 -3 -7 1 -4
9 5 8 10 18 14 22 10 5 -4 5 -2 2 4 -4 6 5 22 19 35 43 40 63 96 60 169 -3 97
-48 170 -130 212 -43 22 -136 32 -176 19z"/>
<path d="M1420 1761 c-137 -45 -212 -185 -165 -311 9 -25 17 -50 17 -57 1 -7
8 -15 15 -17 8 -4 11 -11 7 -18 -4 -7 -4 -10 0 -6 5 4 20 -4 34 -17 14 -13 39
-27 54 -30 16 -4 26 -11 23 -16 -4 -5 1 -6 9 -3 9 3 16 2 16 -3 0 -5 21 -7 50
-3 31 4 51 2 54 -4 3 -7 5 -6 5 2 1 6 7 12 14 12 6 0 25 7 41 15 15 8 32 12
37 9 5 -3 8 -2 7 3 -1 4 9 21 24 36 86 91 88 246 5 335 -58 62 -175 97 -247
73z"/>
<path d="M220 1161 c-78 -25 -128 -70 -161 -145 -18 -41 -20 -61 -16 -113 4
-34 13 -73 22 -86 8 -13 12 -27 8 -30 -3 -4 -1 -7 6 -7 7 0 9 -5 5 -12 -4 -6
-3 -8 3 -5 12 8 44 -28 35 -40 -4 -4 -3 -5 1 -1 5 3 31 -5 58 -19 32 -15 66
-24 92 -24 59 2 91 5 97 11 13 13 51 29 62 26 7 -1 9 -1 5 2 -4 2 2 14 15 26
55 54 73 93 77 171 4 91 -50 184 -133 227 -43 22 -136 32 -176 19z"/>
<path d="M824 1161 c-72 -18 -132 -70 -163 -142 -16 -35 -19 -59 -15 -110 7
-95 8 -98 16 -93 4 3 8 -1 8 -9 0 -8 13 -28 29 -45 16 -16 26 -33 23 -37 -4
-4 0 -5 8 -3 8 1 14 -2 13 -8 -1 -7 3 -11 10 -11 30 1 48 -4 43 -11 -7 -12
140 -15 162 -3 13 7 22 7 31 -2 10 -9 11 -8 5 7 -6 16 -4 18 10 13 9 -4 15 -3
12 2 -7 11 22 23 35 16 5 -4 7 0 4 7 -3 7 8 27 25 45 16 18 30 39 30 47 0 9 4
16 8 16 17 0 7 153 -12 190 -54 104 -173 159 -282 131z"/>
<path d="M1424 1161 c-73 -19 -132 -70 -165 -145 -18 -41 -20 -61 -16 -113 4
-34 14 -74 23 -88 9 -14 13 -25 10 -25 -4 0 11 -17 34 -38 22 -22 38 -41 36
-43 -2 -2 8 -5 22 -6 15 0 28 -6 30 -12 2 -5 10 -7 18 -4 8 3 14 0 14 -6 0 -6
7 -8 15 -5 9 4 15 0 15 -7 0 -10 3 -11 8 -3 4 7 25 14 48 16 23 3 55 12 73 21
19 9 29 11 24 4 -3 -7 11 6 32 28 55 58 77 102 82 170 8 99 -43 192 -131 237
-43 22 -125 31 -172 19z"/>
<path d="M220 561 c-78 -25 -128 -70 -160 -146 -26 -60 -22 -152 9 -208 11
-19 17 -38 13 -43 -4 -4 -1 -4 6 0 7 4 15 1 18 -7 3 -8 25 -26 50 -38 24 -13
44 -27 44 -30 0 -12 121 -12 155 1 12 5 26 6 29 3 3 -4 6 -1 6 5 0 7 6 12 13
12 8 0 30 15 49 34 120 117 92 322 -55 397 -42 22 -138 33 -177 20z"/>
<path d="M820 561 c-70 -23 -122 -66 -156 -131 -23 -43 -26 -178 -5 -203 7 -9
9 -22 5 -29 -4 -7 -4 -10 1 -6 8 8 52 -42 47 -54 -1 -5 1 -7 5 -6 11 4 73 -35
68 -42 -2 -3 36 -7 85 -7 50 -1 92 3 96 8 4 6 11 6 20 -2 12 -10 13 -9 9 4 -4
9 0 17 12 21 18 6 56 39 83 72 26 33 38 82 36 146 -3 95 -49 168 -131 210 -43
22 -135 32 -175 19z"/>
<path d="M1420 561 c-78 -25 -128 -70 -160 -146 -26 -60 -22 -152 9 -208 11
-19 17 -38 13 -43 -4 -4 -2 -4 4 -1 12 7 50 -33 45 -48 -1 -5 0 -7 4 -3 9 8
65 -11 65 -23 0 -4 7 -6 15 -3 8 4 15 1 15 -5 0 -6 7 -8 15 -5 9 4 15 0 15 -7
0 -10 3 -10 8 -3 8 12 74 25 66 13 -2 -4 0 -11 6 -14 6 -4 9 -1 8 7 -2 7 4 13
12 13 8 0 23 8 33 18 10 10 25 16 33 13 7 -3 13 -2 12 2 -1 4 12 23 30 42 105
113 69 310 -71 381 -42 22 -138 33 -177 20z"/>
<path d="M1356 88 c3 -5 10 -6 15 -3 13 9 11 12 -6 12 -8 0 -12 -4 -9 -9z"/>
</g>
</svg>
